{
  "accessors": [
    {
      "bufferView": 2,
      "componentType": 5126,
      "count": 607,
      "max": [
        -2074.820068359375,
        693.3880004882813,
        189.0279998779297
      ],
      "min": [
        -2150.489990234375,
        563.8629760742188,
        -1.525879997643642e-05
      ],
      "type": "VEC3"
    },
    {
      "bufferView": 2,
      "byteOffset": 7284,
      "componentType": 5126,
      "count": 607,
      "max": [
        1.0,
        0.9999696016311646,
        0.999876856803894
      ],
      "min": [
        -1.0,
        -0.9998875856399536,
        -0.999876856803894
      ],
      "type": "VEC3"
    },
    {
      "bufferView": 1,
      "componentType": 5126,
      "count": 607,
      "max": [
        0.9647089838981628,
        0.9951090216636658
      ],
      "min": [
        0.0050760000012815,
        0.008396029472351074
      ],
      "type": "VEC2"
    },
    {
      "bufferView": 0,
      "componentType": 5125,
      "count": 1797,
      "type": "SCALAR"
    },
    {
      "bufferView": 2,
      "byteOffset": 14568,
      "componentType": 5126,
      "count": 164,
      "max": [
        0.4515089988708496,
        -0.10874699801206589,
        -0.366784006357193
      ],
      "min": [
        -0.46126800775527954,
        -1.0704879760742188,
        -1.0391230583190918
      ],
      "type": "VEC3"
    },
    {
      "bufferView": 2,
      "byteOffset": 16536,
      "componentType": 5126,
      "count": 164,
      "max": [
        0.9944263696670532,
        0.9953340291976929,
        0.9978030323982239
      ],
      "min": [
        -0.9986670613288879,
        -0.9916430711746216,
        -0.9993479251861572
      ],
      "type": "VEC3"
    },
    {
      "bufferView": 1,
      "byteOffset": 4856,
      "componentType": 5126,
      "count": 164,
      "max": [
        0.9994999766349792,
        0.9544640183448792
      ],
      "min": [
        0.0024969999212771654,
        0.0365070104598999
      ],
      "type": "VEC2"
    },
    {
      "bufferView": 0,
      "byteOffset": 7188,
      "componentType": 5125,
      "count": 666,
      "type": "SCALAR"
    },
    {
      "bufferView": 2,
      "byteOffset": 18504,
      "componentType": 5126,
      "count": 16,
      "max": [
        0.7359949946403503,
        -0.5031350255012512,
        0.5728129744529724
      ],
      "min": [
        0.32298699021339417,
        -0.690742015838623,
        0.4118030071258545
      ],
      "type": "VEC3"
    },
    {
      "bufferView": 2,
      "byteOffset": 18696,
      "componentType": 5126,
      "count": 16,
      "max": [
        0.7947929501533508,
        -0.6025946736335754,
        0.42640385031700134
      ],
      "min": [
        -0.34319213032722473,
        -0.9951418042182922,
        -0.5713005065917969
      ],
      "type": "VEC3"
    },
    {
      "bufferView": 1,
      "byteOffset": 6168,
      "componentType": 5126,
      "count": 16,
      "max": [
        1.0170530080795288,
        0.9145280122756958
      ],
      "min": [
        -0.02404100075364113,
        1.0013580322265625e-05
      ],
      "type": "VEC2"
    },
    {
      "bufferView": 1,
      "byteOffset": 6296,
      "componentType": 5126,
      "count": 16,
      "max": [
        1.0170530080795288,
        0.9145280122756958
      ],
      "min": [
        -0.02404100075364113,
        1.0013580322265625e-05
      ],
      "type": "VEC2"
    },
    {
      "bufferView": 0,
      "byteOffset": 9852,
      "componentType": 5125,
      "count": 36,
      "type": "SCALAR"
    },
    {
      "bufferView": 2,
      "byteOffset": 18888,
      "componentType": 5126,
      "count": 20,
      "max": [
        0.4638890027999878,
        -0.5049329996109009,
        0.5915769934654236
      ],
      "min": [
        -0.7392629981040955,
        -0.6919299960136414,
        0.42342299222946167
      ],
      "type": "VEC3"
    },
    {
      "bufferView": 2,
      "byteOffset": 19128,
      "componentType": 5126,
      "count": 20,
      "max": [
        0.2564027011394501,
        -0.5841085314750671,
        0.443093866109848
      ],
      "min": [
        -0.8093117475509644,
        -0.9881747961044312,
        -0.5713005065917969
      ],
      "type": "VEC3"
    },
    {
      "bufferView": 1,
      "byteOffset": 6424,
      "componentType": 5126,
      "count": 20,
      "max": [
        1.0743160247802734,
        0.8866069912910461
      ],
      "min": [
        0.033222999423742294,
        0.028594970703125
      ],
      "type": "VEC2"
    },
    {
      "bufferView": 0,
      "byteOffset": 9996,
      "componentType": 5125,
      "count": 48,
      "type": "SCALAR"
    },
    {
      "bufferView": 2,
      "byteOffset": 19368,
      "componentType": 5126,
      "count": 970,
      "max": [
        1.4596179723739624,
        2.623823881149292,
        2.5096681118011475
      ],
      "min": [
        -1.473101019859314,
        -1.4731889963150024,
        -5.382020950317383
      ],
      "type": "VEC3"
    },
    {
      "bufferView": 2,
      "byteOffset": 31008,
      "componentType": 5126,
      "count": 970,
      "max": [
        0.998519241809845,
        0.9998906850814819,
        0.9984589219093323
      ],
      "min": [
        -0.9997066259384155,
        -0.998969316482544,
        -0.9968497157096863
      ],
      "type": "VEC3"
    },
    {
      "bufferView": 1,
      "byteOffset": 6584,
      "componentType": 5126,
      "count": 970,
      "max": [
        0.9982789754867554,
        0.993291974067688
      ],
      "min": [
        0.00101200002245605,
        0.052187979221343994
      ],
      "type": "VEC2"
    },
    {
      "bufferView": 0,
      "byteOffset": 10188,
      "componentType": 5125,
      "count": 5442,
      "type": "SCALAR"
    }
  ],
  "asset": {
    "extras": {
      "author": "WTF?BOOM! (https://sketchfab.com/SkibidiBoomm)",
      "license": "CC-BY-4.0 (http://creativecommons.org/licenses/by/4.0/)",
      "source": "https://sketchfab.com/3d-models/titan-male-07-mech-fanmade-569d5da6ed3d4863813a5a212ff358d2",
      "title": "Titan Male 07 Mech (fanmade)"
    },
    "generator": "Sketchfab-16.16.0",
    "version": "2.0"
  },
  "bufferViews": [
    {
      "buffer": 0,
      "byteLength": 31956,
      "name": "floatBufferViews",
      "target": 34963
    },
    {
      "buffer": 0,
      "byteLength": 14344,
      "byteOffset": 31956,
      "byteStride": 8,
      "name": "floatBufferViews",
      "target": 34962
    },
    {
      "buffer": 0,
      "byteLength": 42648,
      "byteOffset": 46300,
      "byteStride": 12,
      "name": "floatBufferViews",
      "target": 34962
    }
  ],
  "buffers": [
    {
      "byteLength": 88948,
      "uri": "scene.bin"
    }
  ],
  "images": [
    {
      "uri": "textures/Object01Mtl_baseColor.png"
    },
    {
      "uri": "textures/eyeball_l_baseColor.png"
    },
    {
      "uri": "textures/eyeball_r_metallicRoughness.png"
    },
    {
      "uri": "textures/mike_facemap.001_baseColor.png"
    }
  ],
  "materials": [
    {
      "doubleSided": true,
      "name": "Object01Mtl",
      "pbrMetallicRoughness": {
        "baseColorTexture": {
          "index": 0
        },
        "metallicFactor": 0.0,
        "roughnessFactor": 0.6
      }
    },
    {
      "doubleSided": true,
      "name": "eyeball_l",
      "pbrMetallicRoughness": {
        "baseColorTexture": {
          "index": 1
        },
        "metallicFactor": 0.0,
        "roughnessFactor": 0.782206
      }
    },
    {
      "doubleSided": true,
      "name": "eyeball_r",
      "pbrMetallicRoughness": {
        "baseColorFactor": [
          0.885925,
          0.818306,
          0.705855,
          1.0
        ],
        "metallicFactor": 0.0,
        "metallicRoughnessTexture": {
          "index": 2
        }
      }
    },
    {
      "doubleSided": true,
      "name": "eyeball_r.001",
      "pbrMetallicRoughness": {
        "baseColorFactor": [
          0.885925,
          0.818306,
          0.705855,
          1.0
        ],
        "metallicFactor": 0.0,
        "roughnessFactor": 0.782206
      }
    },
    {
      "doubleSided": true,
      "name": "mike_facemap.001",
      "pbrMetallicRoughness": {
        "baseColorTexture": {
          "index": 3
        },
        "metallicFactor": 0.0,
        "roughnessFactor": 0.782206
      }
    }
  ],
  "meshes": [
    {
      "name": "Object_0",
      "primitives": [
        {
          "attributes": {
            "NORMAL": 1,
            "POSITION": 0,
            "TEXCOORD_0": 2
          },
          "indices": 3,
          "material": 0,
          "mode": 4
        }
      ]
    },
    {
      "name": "Object_1",
      "primitives": [
        {
          "attributes": {
            "NORMAL": 5,
            "POSITION": 4,
            "TEXCOORD_0": 6
          },
          "indices": 7,
          "material": 1,
          "mode": 4
        }
      ]
    },
    {
      "name": "Object_2",
      "primitives": [
        {
          "attributes": {
            "NORMAL": 9,
            "POSITION": 8,
            "TEXCOORD_0": 10,
            "TEXCOORD_1": 11
          },
          "indices": 12,
          "material": 2,
          "mode": 4
        }
      ]
    },
    {
      "name": "Object_3",
      "primitives": [
        {
          "attributes": {
            "NORMAL": 14,
            "POSITION": 13,
            "TEXCOORD_0": 15
          },
          "indices": 16,
          "material": 3,
          "mode": 4
        }
      ]
    },
    {
      "name": "Object_4",
      "primitives": [
        {
          "attributes": {
            "NORMAL": 18,
            "POSITION": 17,
            "TEXCOORD_0": 19
          },
          "indices": 20,
          "material": 4,
          "mode": 4
        }
      ]
    }
  ],
  "nodes": [
    {
      "children": [
        1
      ],
      "matrix": [
        1.0,
        -1.6081226229577292e-16,
        -3.5707495248565405e-32,
        0.0,
        0.0,
        2.220446049250313e-16,
        -1.0,
        0.0,
        1.6081226229577292e-16,
        1.0,
        2.220446049250313e-16,
        0.0,
        0.0,
        0.0,
        0.0,
        1.0
      ],
      "name": "Sketchfab_model"
    },
    {
      "children": [
        2
      ],
      "name": "root"
    },
    {
      "children": [
        3,
        7
      ],
      "matrix": [
        1.0,
        0.0,
        0.0,
        0.0,
        0.0,
        2.220446049250313e-16,
        1.0,
        0.0,
        0.0,
        -1.0,
        2.220446049250313e-16,
        0.0,
        0.0,
        0.0,
        0.0,
        1.0
      ],
      "name": "GLTF_SceneRootNode"
    },
    {
      "children": [
        4
      ],
      "matrix": [
        0.004443643910729427,
        -0.00011656023500424692,
        9.41115483432711e-13,
        -0.0,
        -1.0767254333928183e-11,
        -3.745910705725116e-10,
        0.004445172846317276,
        -0.0,
        0.00011656024721470405,
        0.0044436443762305815,
        3.7474460404822327e-10,
        -0.0,
        0.0732257217168808,
        0.0,
        0.9319124221801758,
        1.0
      ],
      "name": "Sketchfab_model.001_2"
    },
    {
      "children": [
        5
      ],
      "matrix": [
        1.0,
        0.0,
        0.0,
        0.0,
        0.0,
        1.0,
        0.0,
        0.0,
        0.0,
        0.0,
        1.0,
        0.0,
        0.0,
        -1.530863664811477e-05,
        0.0,
        1.0
      ],
      "name": "Gman 1.obj.cleaner.materialmerger.gles_1"
    },
    {
      "children": [
        6
      ],
      "matrix": [
        3.0827932357788086,
        0.0,
        0.0,
        0.0,
        0.0,
        3.0827925205230713,
        0.0,
        0.0,
        0.0,
        0.0,
        3.082794189453125,
        0.0,
        6538.1953125,
        -2005.3319091796875,
        171.50181579589844,
        1.0
      ],
      "name": "Object_2.001_0"
    },
    {
      "mesh": 0,
      "name": "Object_6"
    },
    {
      "children": [
        8
      ],
      "matrix": [
        -0.2768463495268579,
        0.005854132753114236,
        -0.0007195257802166347,
        0.0,
        -0.0006846384786490384,
        0.0016568586886379216,
        0.27690339909163236,
        0.0,
        0.0058583152777849316,
        0.27684232657520474,
        -0.0016420086846213589,
        0.0,
        0.2504952549934387,
        2.420789957046509,
        0.17700129747390747,
        1.0
      ],
      "name": "Sketchfab_model.002_8"
    },
    {
      "children": [
        9,
        11,
        13,
        15
      ],
      "name": "male_07Head.obj.cleaner.materialmerger.gles_7"
    },
    {
      "children": [
        10
      ],
      "name": "Object_2.002_3"
    },
    {
      "mesh": 1,
      "name": "Object_10"
    },
    {
      "children": [
        12
      ],
      "name": "Object_3.001_4"
    },
    {
      "mesh": 2,
      "name": "Object_12"
    },
    {
      "children": [
        14
      ],
      "name": "Object_4.001_5"
    },
    {
      "mesh": 3,
      "name": "Object_14"
    },
    {
      "children": [
        16
      ],
      "name": "Object_5_6"
    },
    {
      "mesh": 4,
      "name": "Object_16"
    }
  ],
  "samplers": [
    {
      "magFilter": 9729,
      "minFilter": 9987,
      "wrapS": 10497,
      "wrapT": 10497
    }
  ],
  "scene": 0,
  "scenes": [
    {
      "name": "Sketchfab_Scene",
      "nodes": [
        0
      ]
    }
  ],
  "textures": [
    {
      "sampler": 0,
      "source": 0
    },
    {
      "sampler": 0,
      "source": 1
    },
    {
      "sampler": 0,
      "source": 2
    },
    {
      "sampler": 0,
      "source": 3
    }
  ]
}
